<mxfile host="app.diagrams.net" agent="Mozilla/5.0 (Macintosh; Intel Mac OS X 10_15_7) AppleWebKit/605.1.15 (KHTML, like Gecko) Version/17.6 Safari/605.1.15" version="26.0.10">
  <diagram name="Page-1" id="S1dP7LquDAVuzHz0Ilse">
    <mxGraphModel dx="1156" dy="826" grid="1" gridSize="10" guides="1" tooltips="1" connect="1" arrows="1" fold="1" page="1" pageScale="1" pageWidth="827" pageHeight="1169" math="0" shadow="0">
      <root>
        <mxCell id="0" />
        <mxCell id="1" parent="0" />
        <mxCell id="2" value="Telegraf" style="whiteSpace=wrap;strokeWidth=2;" parent="1" vertex="1">
          <mxGeometry x="8" y="29" width="118" height="54" as="geometry" />
        </mxCell>
        <mxCell id="3" value="InfluxDB" style="whiteSpace=wrap;strokeWidth=2;" parent="1" vertex="1">
          <mxGeometry x="294" y="29" width="119" height="54" as="geometry" />
        </mxCell>
        <mxCell id="5" value="Grafana" style="whiteSpace=wrap;strokeWidth=2;" parent="1" vertex="1">
          <mxGeometry x="866" y="29" width="117" height="54" as="geometry" />
        </mxCell>
        <mxCell id="6" value="collects metrics" style="curved=1;startArrow=none;endArrow=block;exitX=1;exitY=0.5;entryX=0;entryY=0.5;orthogonalLoop=1;" parent="1" source="2" target="3" edge="1">
          <mxGeometry relative="1" as="geometry">
            <Array as="points" />
          </mxGeometry>
        </mxCell>
        <mxCell id="7" value="stores metrics" style="curved=1;startArrow=none;endArrow=block;exitX=1;exitY=0.79;entryX=0;entryY=0.49;" parent="1" source="3" edge="1">
          <mxGeometry relative="1" as="geometry">
            <Array as="points">
              <mxPoint x="491" y="93" />
            </Array>
            <mxPoint x="568" y="92.46000000000004" as="targetPoint" />
          </mxGeometry>
        </mxCell>
        <mxCell id="8" value="provides queries" style="curved=1;startArrow=none;endArrow=block;exitX=1;exitY=0.2;entryX=0;entryY=0.21;" parent="1" source="3" target="5" edge="1">
          <mxGeometry relative="1" as="geometry">
            <Array as="points">
              <mxPoint x="491" y="19" />
              <mxPoint x="787" y="19" />
            </Array>
          </mxGeometry>
        </mxCell>
        <mxCell id="9" value="visualizes data" style="curved=1;startArrow=none;endArrow=block;exitX=1;exitY=0.49;entryX=0;entryY=0.79;" parent="1" target="5" edge="1">
          <mxGeometry relative="1" as="geometry">
            <Array as="points">
              <mxPoint x="787" y="93" />
            </Array>
            <mxPoint x="707" y="92.46000000000004" as="sourcePoint" />
          </mxGeometry>
        </mxCell>
      </root>
    </mxGraphModel>
  </diagram>
</mxfile>
